<svg xmlns="http://www.w3.org/2000/svg" xmlns:xlink="http://www.w3.org/1999/xlink" fill="none" version="1.1" width="35" height="35" viewBox="0 0 35 35"><defs><filter id="master_svg0_1256_25448" filterUnits="objectBoundingBox" color-interpolation-filters="sRGB" x="-0.5" y="-0.5" width="2" height="2"><feFlood flood-opacity="0" result="BackgroundImageFix"/><feColorMatrix in="SourceAlpha" type="matrix" values="0 0 0 0 0 0 0 0 0 0 0 0 0 0 0 0 0 0 127 0"/><feOffset dy="0" dx="0"/><feGaussianBlur stdDeviation="2.5"/><feColorMatrix type="matrix" values="0 0 0 0 0 0 0 0 0 0 0 0 0 0 0 0 0 0 0.14000000059604645 0"/><feBlend mode="normal" in2="BackgroundImageFix" result="effect1_dropShadow"/><feBlend mode="normal" in="SourceGraphic" in2="effect1_dropShadow" result="shape"/></filter></defs><g><g filter="url(#master_svg0_1256_25448)"><ellipse cx="17.5" cy="17.5" rx="10" ry="10" fill="#FFFFFF" fill-opacity="1"/></g><g><path d="M15.20711,15.207107Q15.347760000000001,15.066454,15.42388,14.882683Q15.5,14.698912,15.5,14.5Q15.5,14.4015086,15.48078,14.30491Q15.46157,14.208311,15.42388,14.117317Q15.38619,14.026322,15.33147,13.94443Q15.27675,13.862537,15.20711,13.792893Q15.13746,13.723249,15.05557,13.66853Q14.97368,13.613812,14.88268,13.576121Q14.79169,13.53843,14.69509,13.519214999999999Q14.59849,13.5,14.5,13.5Q14.30109,13.5,14.11732,13.57612Q13.93355,13.652241,13.79289,13.792893L10.792893,16.79289Q10.723249,16.86254,10.66853,16.94443Q10.613812,17.02632,10.576121,17.11732Q10.53843,17.20831,10.519214999999999,17.30491Q10.5,17.401510000000002,10.5,17.5Q10.5,17.598489999999998,10.519214999999999,17.69509Q10.53843,17.79169,10.576121,17.88268Q10.613812,17.97368,10.66853,18.05557Q10.723249,18.13746,10.792893,18.20711L13.792580000000001,21.206789999999998L13.79289,21.20711Q13.93355,21.34776,14.11732,21.42388Q14.30109,21.5,14.5,21.5Q14.59849,21.5,14.69509,21.48078Q14.79169,21.461570000000002,14.88268,21.42388Q14.97368,21.38619,15.05557,21.33147Q15.13746,21.27675,15.20711,21.20711Q15.27675,21.13746,15.33147,21.05557Q15.38619,20.97368,15.42388,20.88268Q15.46157,20.79169,15.48078,20.69509Q15.5,20.598489999999998,15.5,20.5Q15.5,20.301090000000002,15.42388,20.11732Q15.347760000000001,19.93355,15.20711,19.79289L15.20679,19.79258L12.91421,17.5L15.20711,15.207107Z" fill-rule="evenodd" fill="#A1A1A1" fill-opacity="1"/></g><g transform="matrix(-1,0,0,1,47,0)"><path d="M27.20711,15.207107Q27.34776,15.066454,27.42388,14.882683Q27.5,14.698912,27.5,14.5Q27.5,14.4015086,27.48078,14.30491Q27.461570000000002,14.208311,27.42388,14.117317Q27.38619,14.026322,27.33147,13.94443Q27.27675,13.862537,27.20711,13.792893Q27.13746,13.723249,27.05557,13.66853Q26.97368,13.613812,26.88268,13.576121Q26.79169,13.53843,26.69509,13.519214999999999Q26.598489999999998,13.5,26.5,13.5Q26.30109,13.5,26.11732,13.57612Q25.93355,13.652241,25.79289,13.792893L22.792893,16.79289Q22.723249,16.86254,22.66853,16.94443Q22.613812,17.02632,22.576121,17.11732Q22.538429999999998,17.20831,22.519215,17.30491Q22.5,17.401510000000002,22.5,17.5Q22.5,17.598489999999998,22.519215,17.69509Q22.538429999999998,17.79169,22.576121,17.88268Q22.613812,17.97368,22.66853,18.05557Q22.723249,18.13746,22.792893,18.20711L25.79258,21.206789999999998L25.79289,21.20711Q25.93355,21.34776,26.11732,21.42388Q26.30109,21.5,26.5,21.5Q26.598489999999998,21.5,26.69509,21.48078Q26.79169,21.461570000000002,26.88268,21.42388Q26.97368,21.38619,27.05557,21.33147Q27.13746,21.27675,27.20711,21.20711Q27.27675,21.13746,27.33147,21.05557Q27.38619,20.97368,27.42388,20.88268Q27.461570000000002,20.79169,27.48078,20.69509Q27.5,20.598489999999998,27.5,20.5Q27.5,20.301090000000002,27.42388,20.11732Q27.34776,19.93355,27.20711,19.79289L27.206789999999998,19.79258L24.91421,17.5L27.20711,15.207107Z" fill-rule="evenodd" fill="#A1A1A1" fill-opacity="1"/></g></g></svg>